<svg width="29" height="17" viewBox="0 0 29 17" fill="none" xmlns="http://www.w3.org/2000/svg">
<path d="M1.76855 1.0249V14.86C1.76855 14.9959 1.86172 15.1262 2.02754 15.2223C2.19337 15.3184 2.41828 15.3724 2.65279 15.3724H26.5272" stroke="black" stroke-linecap="round" stroke-linejoin="round"/>
<path d="M8.62131 7.17383H6.41072C5.80028 7.17383 5.30542 7.4606 5.30542 7.81434V12.6822C5.30542 13.036 5.80028 13.3228 6.41072 13.3228H8.62131C9.23175 13.3228 9.72661 13.036 9.72661 12.6822V7.81434C9.72661 7.4606 9.23175 7.17383 8.62131 7.17383Z" stroke="black" stroke-linecap="round" stroke-linejoin="round"/>
<path d="M16.5796 5.63647H14.369C13.7585 5.63647 13.2637 5.92324 13.2637 6.27699V12.6821C13.2637 13.0359 13.7585 13.3226 14.369 13.3226H16.5796C17.19 13.3226 17.6849 13.0359 17.6849 12.6821V6.27699C17.6849 5.92324 17.19 5.63647 16.5796 5.63647Z" stroke="black" stroke-linecap="round" stroke-linejoin="round"/>
<path d="M24.5178 3.58691H22.3072C21.6968 3.58691 21.2019 3.87368 21.2019 4.22743V12.6822C21.2019 13.0359 21.6968 13.3227 22.3072 13.3227H24.5178C25.1282 13.3227 25.6231 13.0359 25.6231 12.6822V4.22743C25.6231 3.87368 25.1282 3.58691 24.5178 3.58691Z" stroke="black" stroke-linecap="round" stroke-linejoin="round"/>
</svg>
