<svg width="152" height="36" viewBox="0 0 152 36" fill="none" xmlns="http://www.w3.org/2000/svg">
<g clip-path="url(#clip0_123_155)">
<rect width="151.607" height="37.5958" rx="8" fill="#FAFAFA"/>
<path fill-rule="evenodd" clip-rule="evenodd" d="M21.0146 18.7979C21.0146 15.9279 23.1953 13.5985 25.8882 13.5985C28.586 13.5985 30.7715 15.9279 30.7715 18.7979C30.7715 21.668 28.586 23.9974 25.8882 23.9974C23.1953 23.9974 21.0146 21.668 21.0146 18.7979ZM21.9903 18.7979C21.9903 21.0961 23.7368 22.9575 25.8931 22.9575C28.0494 22.9575 29.7959 21.0961 29.7959 18.7979C29.7959 16.4998 28.0494 14.6384 25.8931 14.6384C23.7368 14.6384 21.9903 16.4998 21.9903 18.7979Z" fill="white"/>
<path d="M25.5179 15.9983H24.7673V19.1455L27.3942 20.7977L27.7695 20.1526L25.5179 18.7521V15.9983Z" fill="white"/>
<path d="M84.28 19.4L84.19 17.53L87.54 14H89.34L86.32 17.25L85.42 18.21L84.28 19.4ZM82.83 21V14H84.44V21H82.83ZM87.62 21L85.13 17.95L86.19 16.8L89.51 21H87.62ZM92.5677 21.08C91.9544 21.08 91.4144 20.96 90.9477 20.72C90.4877 20.48 90.1311 20.1533 89.8777 19.74C89.6244 19.32 89.4977 18.8433 89.4977 18.31C89.4977 17.77 89.6211 17.2933 89.8677 16.88C90.1211 16.46 90.4644 16.1333 90.8977 15.9C91.3311 15.66 91.8211 15.54 92.3677 15.54C92.8944 15.54 93.3677 15.6533 93.7877 15.88C94.2144 16.1 94.5511 16.42 94.7977 16.84C95.0444 17.2533 95.1677 17.75 95.1677 18.33C95.1677 18.39 95.1644 18.46 95.1577 18.54C95.1511 18.6133 95.1444 18.6833 95.1377 18.75H90.7677V17.84H94.3177L93.7177 18.11C93.7177 17.83 93.6611 17.5867 93.5477 17.38C93.4344 17.1733 93.2777 17.0133 93.0777 16.9C92.8777 16.78 92.6444 16.72 92.3777 16.72C92.1111 16.72 91.8744 16.78 91.6677 16.9C91.4677 17.0133 91.3111 17.1767 91.1977 17.39C91.0844 17.5967 91.0277 17.8433 91.0277 18.13V18.37C91.0277 18.6633 91.0911 18.9233 91.2177 19.15C91.3511 19.37 91.5344 19.54 91.7677 19.66C92.0077 19.7733 92.2877 19.83 92.6077 19.83C92.8944 19.83 93.1444 19.7867 93.3577 19.7C93.5777 19.6133 93.7777 19.4833 93.9577 19.31L94.7877 20.21C94.5411 20.49 94.2311 20.7067 93.8577 20.86C93.4844 21.0067 93.0544 21.08 92.5677 21.08ZM98.8763 21.08C98.263 21.08 97.723 20.96 97.2563 20.72C96.7963 20.48 96.4397 20.1533 96.1863 19.74C95.933 19.32 95.8063 18.8433 95.8063 18.31C95.8063 17.77 95.9297 17.2933 96.1763 16.88C96.4297 16.46 96.773 16.1333 97.2063 15.9C97.6397 15.66 98.1297 15.54 98.6763 15.54C99.203 15.54 99.6763 15.6533 100.096 15.88C100.523 16.1 100.86 16.42 101.106 16.84C101.353 17.2533 101.476 17.75 101.476 18.33C101.476 18.39 101.473 18.46 101.466 18.54C101.46 18.6133 101.453 18.6833 101.446 18.75H97.0763V17.84H100.626L100.026 18.11C100.026 17.83 99.9697 17.5867 99.8563 17.38C99.743 17.1733 99.5863 17.0133 99.3863 16.9C99.1863 16.78 98.953 16.72 98.6863 16.72C98.4197 16.72 98.183 16.78 97.9763 16.9C97.7763 17.0133 97.6197 17.1767 97.5063 17.39C97.393 17.5967 97.3363 17.8433 97.3363 18.13V18.37C97.3363 18.6633 97.3997 18.9233 97.5263 19.15C97.6597 19.37 97.843 19.54 98.0763 19.66C98.3163 19.7733 98.5963 19.83 98.9163 19.83C99.203 19.83 99.453 19.7867 99.6663 19.7C99.8863 19.6133 100.086 19.4833 100.266 19.31L101.096 20.21C100.85 20.49 100.54 20.7067 100.166 20.86C99.793 21.0067 99.363 21.08 98.8763 21.08ZM105.695 21.08C105.242 21.08 104.845 20.98 104.505 20.78C104.165 20.58 103.898 20.2767 103.705 19.87C103.518 19.4567 103.425 18.9367 103.425 18.31C103.425 17.6767 103.515 17.1567 103.695 16.75C103.875 16.3433 104.135 16.04 104.475 15.84C104.815 15.64 105.222 15.54 105.695 15.54C106.202 15.54 106.655 15.6567 107.055 15.89C107.462 16.1167 107.782 16.4367 108.015 16.85C108.255 17.2633 108.375 17.75 108.375 18.31C108.375 18.8767 108.255 19.3667 108.015 19.78C107.782 20.1933 107.462 20.5133 107.055 20.74C106.655 20.9667 106.202 21.08 105.695 21.08ZM102.515 22.94V15.62H104.005V16.72L103.975 18.32L104.075 19.91V22.94H102.515ZM105.425 19.8C105.685 19.8 105.915 19.74 106.115 19.62C106.322 19.5 106.485 19.33 106.605 19.11C106.732 18.8833 106.795 18.6167 106.795 18.31C106.795 17.9967 106.732 17.73 106.605 17.51C106.485 17.29 106.322 17.12 106.115 17C105.915 16.88 105.685 16.82 105.425 16.82C105.165 16.82 104.932 16.88 104.725 17C104.518 17.12 104.355 17.29 104.235 17.51C104.115 17.73 104.055 17.9967 104.055 18.31C104.055 18.6167 104.115 18.8833 104.235 19.11C104.355 19.33 104.518 19.5 104.725 19.62C104.932 19.74 105.165 19.8 105.425 19.8ZM112.089 21.08C111.476 21.08 110.936 20.96 110.469 20.72C110.009 20.48 109.653 20.1533 109.399 19.74C109.146 19.32 109.019 18.8433 109.019 18.31C109.019 17.77 109.143 17.2933 109.389 16.88C109.643 16.46 109.986 16.1333 110.419 15.9C110.853 15.66 111.343 15.54 111.889 15.54C112.416 15.54 112.889 15.6533 113.309 15.88C113.736 16.1 114.073 16.42 114.319 16.84C114.566 17.2533 114.689 17.75 114.689 18.33C114.689 18.39 114.686 18.46 114.679 18.54C114.673 18.6133 114.666 18.6833 114.659 18.75H110.289V17.84H113.839L113.239 18.11C113.239 17.83 113.183 17.5867 113.069 17.38C112.956 17.1733 112.799 17.0133 112.599 16.9C112.399 16.78 112.166 16.72 111.899 16.72C111.633 16.72 111.396 16.78 111.189 16.9C110.989 17.0133 110.833 17.1767 110.719 17.39C110.606 17.5967 110.549 17.8433 110.549 18.13V18.37C110.549 18.6633 110.613 18.9233 110.739 19.15C110.873 19.37 111.056 19.54 111.289 19.66C111.529 19.7733 111.809 19.83 112.129 19.83C112.416 19.83 112.666 19.7867 112.879 19.7C113.099 19.6133 113.299 19.4833 113.479 19.31L114.309 20.21C114.063 20.49 113.753 20.7067 113.379 20.86C113.006 21.0067 112.576 21.08 112.089 21.08ZM115.728 21V15.62H117.218V17.14L117.008 16.7C117.168 16.32 117.424 16.0333 117.778 15.84C118.131 15.64 118.561 15.54 119.068 15.54V16.98C119.001 16.9733 118.941 16.97 118.888 16.97C118.834 16.9633 118.778 16.96 118.718 16.96C118.291 16.96 117.944 17.0833 117.678 17.33C117.418 17.57 117.288 17.9467 117.288 18.46V21H115.728Z" fill="#004E89"/>
<path d="M56.28 21V15.32H54.04V14H60.14V15.32H57.9V21H56.28ZM60.9016 21V15.62H62.4616V21H60.9016ZM61.6816 14.87C61.395 14.87 61.1616 14.7867 60.9816 14.62C60.8016 14.4533 60.7116 14.2467 60.7116 14C60.7116 13.7533 60.8016 13.5467 60.9816 13.38C61.1616 13.2133 61.395 13.13 61.6816 13.13C61.9683 13.13 62.2016 13.21 62.3816 13.37C62.5616 13.5233 62.6516 13.7233 62.6516 13.97C62.6516 14.23 62.5616 14.4467 62.3816 14.62C62.2083 14.7867 61.975 14.87 61.6816 14.87ZM70.7995 15.54C71.2261 15.54 71.6028 15.6267 71.9295 15.8C72.2628 15.9667 72.5228 16.2267 72.7095 16.58C72.9028 16.9267 72.9995 17.3733 72.9995 17.92V21H71.4395V18.16C71.4395 17.7267 71.3495 17.4067 71.1695 17.2C70.9895 16.9933 70.7361 16.89 70.4095 16.89C70.1828 16.89 69.9795 16.9433 69.7995 17.05C69.6195 17.15 69.4795 17.3033 69.3795 17.51C69.2795 17.7167 69.2295 17.98 69.2295 18.3V21H67.6695V18.16C67.6695 17.7267 67.5795 17.4067 67.3995 17.2C67.2261 16.9933 66.9761 16.89 66.6495 16.89C66.4228 16.89 66.2195 16.9433 66.0395 17.05C65.8595 17.15 65.7195 17.3033 65.6195 17.51C65.5195 17.7167 65.4695 17.98 65.4695 18.3V21H63.9095V15.62H65.3995V17.09L65.1195 16.66C65.3061 16.2933 65.5695 16.0167 65.9095 15.83C66.2561 15.6367 66.6495 15.54 67.0895 15.54C67.5828 15.54 68.0128 15.6667 68.3795 15.92C68.7528 16.1667 68.9995 16.5467 69.1195 17.06L68.5695 16.91C68.7495 16.49 69.0361 16.1567 69.4295 15.91C69.8295 15.6633 70.2861 15.54 70.7995 15.54ZM77.1068 21.08C76.4935 21.08 75.9535 20.96 75.4868 20.72C75.0268 20.48 74.6701 20.1533 74.4168 19.74C74.1635 19.32 74.0368 18.8433 74.0368 18.31C74.0368 17.77 74.1601 17.2933 74.4068 16.88C74.6601 16.46 75.0035 16.1333 75.4368 15.9C75.8701 15.66 76.3601 15.54 76.9068 15.54C77.4335 15.54 77.9068 15.6533 78.3268 15.88C78.7535 16.1 79.0901 16.42 79.3368 16.84C79.5835 17.2533 79.7068 17.75 79.7068 18.33C79.7068 18.39 79.7035 18.46 79.6968 18.54C79.6901 18.6133 79.6835 18.6833 79.6768 18.75H75.3068V17.84H78.8568L78.2568 18.11C78.2568 17.83 78.2001 17.5867 78.0868 17.38C77.9735 17.1733 77.8168 17.0133 77.6168 16.9C77.4168 16.78 77.1835 16.72 76.9168 16.72C76.6501 16.72 76.4135 16.78 76.2068 16.9C76.0068 17.0133 75.8501 17.1767 75.7368 17.39C75.6235 17.5967 75.5668 17.8433 75.5668 18.13V18.37C75.5668 18.6633 75.6301 18.9233 75.7568 19.15C75.8901 19.37 76.0735 19.54 76.3068 19.66C76.5468 19.7733 76.8268 19.83 77.1468 19.83C77.4335 19.83 77.6835 19.7867 77.8968 19.7C78.1168 19.6133 78.3168 19.4833 78.4968 19.31L79.3268 20.21C79.0801 20.49 78.7701 20.7067 78.3968 20.86C78.0235 21.0067 77.5935 21.08 77.1068 21.08Z" fill="black"/>
<path d="M103.735 33.05C103.528 33.05 103.347 32.9983 103.19 32.895C103.037 32.7917 102.935 32.6533 102.885 32.48L102.94 32.355V32.72C102.94 32.8233 102.913 32.9033 102.86 32.96C102.807 33.0133 102.732 33.04 102.635 33.04C102.535 33.04 102.458 33.0133 102.405 32.96C102.352 32.9033 102.325 32.8233 102.325 32.72V29.75C102.325 29.6467 102.352 29.5683 102.405 29.515C102.458 29.4617 102.535 29.435 102.635 29.435C102.735 29.435 102.812 29.4617 102.865 29.515C102.922 29.5683 102.95 29.6467 102.95 29.75V31.05H102.89C102.943 30.8867 103.047 30.755 103.2 30.655C103.353 30.555 103.532 30.505 103.735 30.505C103.952 30.505 104.14 30.5567 104.3 30.66C104.46 30.7633 104.585 30.91 104.675 31.1C104.765 31.2867 104.81 31.5117 104.81 31.775C104.81 32.035 104.765 32.2617 104.675 32.455C104.585 32.645 104.458 32.7917 104.295 32.895C104.135 32.9983 103.948 33.05 103.735 33.05ZM103.56 32.575C103.683 32.575 103.792 32.545 103.885 32.485C103.978 32.425 104.05 32.3367 104.1 32.22C104.153 32.1 104.18 31.9517 104.18 31.775C104.18 31.5083 104.123 31.31 104.01 31.18C103.897 31.0467 103.747 30.98 103.56 30.98C103.437 30.98 103.328 31.01 103.235 31.07C103.142 31.1267 103.068 31.215 103.015 31.335C102.965 31.4517 102.94 31.5983 102.94 31.775C102.94 32.0383 102.997 32.2383 103.11 32.375C103.223 32.5083 103.373 32.575 103.56 32.575ZM105.894 33.94C105.821 33.94 105.761 33.92 105.714 33.88C105.668 33.8433 105.639 33.7933 105.629 33.73C105.623 33.6667 105.634 33.6 105.664 33.53L106.004 32.775V33.035L105.094 30.93C105.064 30.8567 105.054 30.7883 105.064 30.725C105.074 30.6617 105.104 30.6117 105.154 30.575C105.208 30.535 105.279 30.515 105.369 30.515C105.446 30.515 105.508 30.5333 105.554 30.57C105.601 30.6033 105.643 30.6683 105.679 30.765L106.354 32.45H106.204L106.894 30.76C106.931 30.6667 106.974 30.6033 107.024 30.57C107.074 30.5333 107.141 30.515 107.224 30.515C107.298 30.515 107.356 30.535 107.399 30.575C107.443 30.6117 107.469 30.6617 107.479 30.725C107.489 30.785 107.478 30.8517 107.444 30.925L106.229 33.7C106.186 33.7933 106.139 33.8567 106.089 33.89C106.039 33.9233 105.974 33.94 105.894 33.94ZM109.643 33.04C109.54 33.04 109.46 33.0117 109.403 32.955C109.35 32.895 109.323 32.8133 109.323 32.71V29.8C109.323 29.6933 109.352 29.6133 109.408 29.56C109.465 29.5033 109.545 29.475 109.648 29.475H110.853C111.24 29.475 111.538 29.5683 111.748 29.755C111.958 29.9383 112.063 30.1967 112.063 30.53C112.063 30.7467 112.015 30.9333 111.918 31.09C111.825 31.2467 111.688 31.3667 111.508 31.45C111.328 31.5333 111.11 31.575 110.853 31.575L110.898 31.5H111.063C111.2 31.5 111.318 31.5333 111.418 31.6C111.522 31.6667 111.612 31.7717 111.688 31.915L112.063 32.61C112.103 32.68 112.122 32.7483 112.118 32.815C112.115 32.8817 112.09 32.9367 112.043 32.98C111.997 33.02 111.928 33.04 111.838 33.04C111.748 33.04 111.675 33.0217 111.618 32.985C111.562 32.945 111.512 32.885 111.468 32.805L110.963 31.875C110.903 31.7617 110.832 31.6867 110.748 31.65C110.668 31.61 110.565 31.59 110.438 31.59H109.963V32.71C109.963 32.8133 109.937 32.895 109.883 32.955C109.83 33.0117 109.75 33.04 109.643 33.04ZM109.963 31.115H110.743C110.973 31.115 111.147 31.0683 111.263 30.975C111.383 30.8783 111.443 30.735 111.443 30.545C111.443 30.3583 111.383 30.2183 111.263 30.125C111.147 30.0283 110.973 29.98 110.743 29.98H109.963V31.115ZM113.768 33.95C113.588 33.95 113.413 33.9333 113.243 33.9C113.076 33.8667 112.924 33.815 112.788 33.745C112.724 33.7117 112.681 33.6717 112.658 33.625C112.638 33.5783 112.631 33.53 112.638 33.48C112.648 33.4333 112.668 33.3917 112.698 33.355C112.731 33.3183 112.771 33.2933 112.818 33.28C112.864 33.2667 112.913 33.2733 112.963 33.3C113.109 33.3733 113.248 33.42 113.378 33.44C113.511 33.4633 113.624 33.475 113.718 33.475C113.941 33.475 114.108 33.42 114.218 33.31C114.331 33.2033 114.388 33.0433 114.388 32.83V32.38H114.433C114.383 32.55 114.278 32.6867 114.118 32.79C113.961 32.89 113.783 32.94 113.583 32.94C113.363 32.94 113.171 32.89 113.008 32.79C112.844 32.6867 112.718 32.5433 112.628 32.36C112.538 32.1767 112.493 31.9633 112.493 31.72C112.493 31.5367 112.518 31.3717 112.568 31.225C112.621 31.075 112.694 30.9467 112.788 30.84C112.884 30.7333 112.999 30.6517 113.133 30.595C113.269 30.535 113.419 30.505 113.583 30.505C113.789 30.505 113.969 30.5567 114.123 30.66C114.279 30.76 114.381 30.8933 114.428 31.06L114.378 31.185V30.83C114.378 30.7267 114.404 30.6483 114.458 30.595C114.514 30.5417 114.591 30.515 114.688 30.515C114.788 30.515 114.864 30.5417 114.918 30.595C114.971 30.6483 114.998 30.7267 114.998 30.83V32.755C114.998 33.1517 114.893 33.45 114.683 33.65C114.473 33.85 114.168 33.95 113.768 33.95ZM113.753 32.465C113.883 32.465 113.994 32.435 114.088 32.375C114.181 32.315 114.253 32.23 114.303 32.12C114.356 32.0067 114.383 31.8733 114.383 31.72C114.383 31.49 114.326 31.31 114.213 31.18C114.099 31.0467 113.946 30.98 113.753 30.98C113.623 30.98 113.511 31.01 113.418 31.07C113.324 31.13 113.251 31.215 113.198 31.325C113.148 31.435 113.123 31.5667 113.123 31.72C113.123 31.95 113.179 32.1317 113.293 32.265C113.406 32.3983 113.559 32.465 113.753 32.465ZM116.005 33.04C115.912 33.04 115.84 33.0133 115.79 32.96C115.74 32.9067 115.715 32.8333 115.715 32.74V29.735C115.715 29.6383 115.742 29.565 115.795 29.515C115.849 29.4617 115.922 29.435 116.015 29.435C116.099 29.435 116.164 29.4517 116.21 29.485C116.26 29.515 116.305 29.5683 116.345 29.645L117.58 31.93H117.42L118.655 29.645C118.695 29.5683 118.739 29.515 118.785 29.485C118.832 29.4517 118.897 29.435 118.98 29.435C119.074 29.435 119.145 29.4617 119.195 29.515C119.245 29.565 119.27 29.6383 119.27 29.735V32.74C119.27 32.8333 119.245 32.9067 119.195 32.96C119.149 33.0133 119.077 33.04 118.98 33.04C118.887 33.04 118.815 33.0133 118.765 32.96C118.715 32.9067 118.69 32.8333 118.69 32.74V30.425H118.8L117.75 32.34C117.717 32.3967 117.682 32.4383 117.645 32.465C117.609 32.4917 117.559 32.505 117.495 32.505C117.432 32.505 117.38 32.4917 117.34 32.465C117.3 32.435 117.265 32.3933 117.235 32.34L116.175 30.42H116.295V32.74C116.295 32.8333 116.27 32.9067 116.22 32.96C116.174 33.0133 116.102 33.04 116.005 33.04ZM122.619 33.05C122.472 33.05 122.325 33.0383 122.179 33.015C122.032 32.995 121.894 32.9633 121.764 32.92C121.634 32.8733 121.517 32.8167 121.414 32.75C121.354 32.71 121.312 32.6617 121.289 32.605C121.265 32.5483 121.257 32.4933 121.264 32.44C121.274 32.3833 121.295 32.335 121.329 32.295C121.365 32.2517 121.41 32.225 121.464 32.215C121.517 32.205 121.575 32.22 121.639 32.26C121.785 32.3467 121.94 32.41 122.104 32.45C122.267 32.49 122.439 32.51 122.619 32.51C122.882 32.51 123.074 32.4667 123.194 32.38C123.314 32.29 123.374 32.175 123.374 32.035C123.374 31.9183 123.33 31.8267 123.244 31.76C123.16 31.6933 123.015 31.6383 122.809 31.595L122.259 31.48C121.942 31.4133 121.705 31.3017 121.549 31.145C121.395 30.985 121.319 30.775 121.319 30.515C121.319 30.3517 121.352 30.2033 121.419 30.07C121.485 29.9367 121.579 29.8217 121.699 29.725C121.822 29.6283 121.967 29.555 122.134 29.505C122.304 29.4517 122.49 29.425 122.694 29.425C122.894 29.425 123.084 29.45 123.264 29.5C123.444 29.55 123.605 29.6233 123.749 29.72C123.802 29.7567 123.837 29.8017 123.854 29.855C123.874 29.9083 123.879 29.9617 123.869 30.015C123.859 30.065 123.835 30.1083 123.799 30.145C123.762 30.1817 123.715 30.2033 123.659 30.21C123.605 30.2167 123.544 30.2 123.474 30.16C123.35 30.09 123.225 30.04 123.099 30.01C122.972 29.98 122.835 29.965 122.689 29.965C122.535 29.965 122.404 29.9867 122.294 30.03C122.184 30.0733 122.099 30.135 122.039 30.215C121.982 30.2917 121.954 30.3833 121.954 30.49C121.954 30.61 121.994 30.7067 122.074 30.78C122.154 30.85 122.29 30.905 122.484 30.945L123.029 31.06C123.359 31.13 123.604 31.24 123.764 31.39C123.927 31.54 124.009 31.74 124.009 31.99C124.009 32.15 123.975 32.295 123.909 32.425C123.845 32.555 123.752 32.6667 123.629 32.76C123.509 32.8533 123.364 32.925 123.194 32.975C123.024 33.025 122.832 33.05 122.619 33.05ZM125.613 33.05C125.36 33.05 125.14 32.9983 124.953 32.895C124.766 32.7917 124.621 32.645 124.518 32.455C124.415 32.2617 124.363 32.035 124.363 31.775C124.363 31.5783 124.391 31.4033 124.448 31.25C124.508 31.0933 124.593 30.96 124.703 30.85C124.813 30.7367 124.945 30.6517 125.098 30.595C125.251 30.535 125.423 30.505 125.613 30.505C125.866 30.505 126.086 30.5567 126.273 30.66C126.46 30.7633 126.605 30.91 126.708 31.1C126.811 31.29 126.863 31.515 126.863 31.775C126.863 31.9717 126.833 32.1483 126.773 32.305C126.716 32.4617 126.633 32.5967 126.523 32.71C126.413 32.82 126.281 32.905 126.128 32.965C125.975 33.0217 125.803 33.05 125.613 33.05ZM125.613 32.575C125.736 32.575 125.845 32.545 125.938 32.485C126.031 32.425 126.103 32.3367 126.153 32.22C126.206 32.1 126.233 31.9517 126.233 31.775C126.233 31.5083 126.176 31.31 126.063 31.18C125.95 31.0467 125.8 30.98 125.613 30.98C125.49 30.98 125.381 31.01 125.288 31.07C125.195 31.1267 125.121 31.215 125.068 31.335C125.018 31.4517 124.993 31.5983 124.993 31.775C124.993 32.0383 125.05 32.2383 125.163 32.375C125.276 32.5083 125.426 32.575 125.613 32.575ZM127.834 33.04C127.734 33.04 127.656 33.0133 127.599 32.96C127.546 32.9033 127.519 32.8233 127.519 32.72V31.025H127.289C127.209 31.025 127.148 31.005 127.104 30.965C127.061 30.9217 127.039 30.8633 127.039 30.79C127.039 30.7133 127.061 30.655 127.104 30.615C127.148 30.575 127.209 30.555 127.289 30.555H127.699L127.519 30.72V30.55C127.519 30.2067 127.606 29.95 127.779 29.78C127.953 29.6067 128.203 29.505 128.529 29.475L128.699 29.46C128.766 29.4533 128.819 29.465 128.859 29.495C128.899 29.5217 128.926 29.5583 128.939 29.605C128.953 29.6483 128.954 29.6933 128.944 29.74C128.934 29.7867 128.913 29.8283 128.879 29.865C128.849 29.8983 128.809 29.9167 128.759 29.92L128.689 29.925C128.499 29.9383 128.361 29.9867 128.274 30.07C128.188 30.1533 128.144 30.28 128.144 30.45V30.635L128.064 30.555H128.569C128.649 30.555 128.711 30.575 128.754 30.615C128.798 30.655 128.819 30.7133 128.819 30.79C128.819 30.8633 128.798 30.9217 128.754 30.965C128.711 31.005 128.649 31.025 128.569 31.025H128.144V32.72C128.144 32.9333 128.041 33.04 127.834 33.04ZM130.159 33.05C129.942 33.05 129.761 33.0133 129.614 32.94C129.471 32.8667 129.364 32.76 129.294 32.62C129.224 32.4767 129.189 32.3 129.189 32.09V31.025H128.929C128.849 31.025 128.787 31.005 128.744 30.965C128.701 30.9217 128.679 30.8633 128.679 30.79C128.679 30.7133 128.701 30.655 128.744 30.615C128.787 30.575 128.849 30.555 128.929 30.555H129.189V30.1C129.189 29.9967 129.216 29.9183 129.269 29.865C129.326 29.8117 129.404 29.785 129.504 29.785C129.604 29.785 129.681 29.8117 129.734 29.865C129.787 29.9183 129.814 29.9967 129.814 30.1V30.555H130.344C130.424 30.555 130.486 30.575 130.529 30.615C130.572 30.655 130.594 30.7133 130.594 30.79C130.594 30.8633 130.572 30.9217 130.529 30.965C130.486 31.005 130.424 31.025 130.344 31.025H129.814V32.055C129.814 32.215 129.849 32.335 129.919 32.415C129.989 32.495 130.102 32.535 130.259 32.535C130.316 32.535 130.366 32.53 130.409 32.52C130.452 32.51 130.491 32.5033 130.524 32.5C130.564 32.4967 130.597 32.51 130.624 32.54C130.651 32.5667 130.664 32.6233 130.664 32.71C130.664 32.7767 130.652 32.8367 130.629 32.89C130.609 32.94 130.571 32.975 130.514 32.995C130.471 33.0083 130.414 33.02 130.344 33.03C130.274 33.0433 130.212 33.05 130.159 33.05ZM131.942 33.04C131.859 33.04 131.787 33.02 131.727 32.98C131.667 32.9367 131.619 32.87 131.582 32.78L130.857 30.93C130.827 30.85 130.817 30.78 130.827 30.72C130.84 30.6567 130.872 30.6067 130.922 30.57C130.972 30.5333 131.039 30.515 131.122 30.515C131.195 30.515 131.255 30.5333 131.302 30.57C131.349 30.6033 131.389 30.6683 131.422 30.765L132.027 32.43H131.912L132.537 30.725C132.564 30.6517 132.599 30.5983 132.642 30.565C132.689 30.5317 132.749 30.515 132.822 30.515C132.895 30.515 132.955 30.5333 133.002 30.57C133.049 30.6033 133.084 30.655 133.107 30.725L133.722 32.43H133.617L134.227 30.75C134.26 30.66 134.302 30.5983 134.352 30.565C134.405 30.5317 134.464 30.515 134.527 30.515C134.607 30.515 134.669 30.535 134.712 30.575C134.755 30.615 134.78 30.6667 134.787 30.73C134.794 30.79 134.782 30.8567 134.752 30.93L134.032 32.78C133.999 32.8667 133.95 32.9317 133.887 32.975C133.827 33.0183 133.755 33.04 133.672 33.04C133.589 33.04 133.515 33.0183 133.452 32.975C133.392 32.9317 133.345 32.8667 133.312 32.78L132.657 31.045H132.942L132.302 32.775C132.269 32.865 132.222 32.9317 132.162 32.975C132.102 33.0183 132.029 33.04 131.942 33.04ZM136.016 33.05C135.839 33.05 135.681 33.0167 135.541 32.95C135.404 32.88 135.296 32.7867 135.216 32.67C135.139 32.5533 135.101 32.4217 135.101 32.275C135.101 32.095 135.147 31.9533 135.241 31.85C135.334 31.7433 135.486 31.6667 135.696 31.62C135.906 31.5733 136.187 31.55 136.541 31.55H136.791V31.91H136.546C136.339 31.91 136.174 31.92 136.051 31.94C135.927 31.96 135.839 31.995 135.786 32.045C135.736 32.0917 135.711 32.1583 135.711 32.245C135.711 32.355 135.749 32.445 135.826 32.515C135.902 32.585 136.009 32.62 136.146 32.62C136.256 32.62 136.352 32.595 136.436 32.545C136.522 32.4917 136.591 32.42 136.641 32.33C136.691 32.24 136.716 32.1367 136.716 32.02V31.445C136.716 31.2783 136.679 31.1583 136.606 31.085C136.532 31.0117 136.409 30.975 136.236 30.975C136.139 30.975 136.034 30.9867 135.921 31.01C135.811 31.0333 135.694 31.0733 135.571 31.13C135.507 31.16 135.451 31.1683 135.401 31.155C135.354 31.1417 135.317 31.115 135.291 31.075C135.264 31.0317 135.251 30.985 135.251 30.935C135.251 30.885 135.264 30.8367 135.291 30.79C135.317 30.74 135.362 30.7033 135.426 30.68C135.579 30.6167 135.726 30.5717 135.866 30.545C136.009 30.5183 136.139 30.505 136.256 30.505C136.496 30.505 136.692 30.5417 136.846 30.615C137.002 30.6883 137.119 30.8 137.196 30.95C137.272 31.0967 137.311 31.2867 137.311 31.52V32.72C137.311 32.8233 137.286 32.9033 137.236 32.96C137.186 33.0133 137.114 33.04 137.021 33.04C136.927 33.04 136.854 33.0133 136.801 32.96C136.751 32.9033 136.726 32.8233 136.726 32.72V32.48H136.766C136.742 32.5967 136.696 32.6983 136.626 32.785C136.559 32.8683 136.474 32.9333 136.371 32.98C136.267 33.0267 136.149 33.05 136.016 33.05ZM138.265 33.04C138.162 33.04 138.082 33.0133 138.025 32.96C137.972 32.9033 137.945 32.8233 137.945 32.72V30.83C137.945 30.7267 137.972 30.6483 138.025 30.595C138.078 30.5417 138.153 30.515 138.25 30.515C138.347 30.515 138.422 30.5417 138.475 30.595C138.528 30.6483 138.555 30.7267 138.555 30.83V31.145H138.505C138.552 30.945 138.643 30.7933 138.78 30.69C138.917 30.5867 139.098 30.525 139.325 30.505C139.395 30.4983 139.45 30.5167 139.49 30.56C139.533 30.6 139.558 30.6633 139.565 30.75C139.572 30.8333 139.552 30.9017 139.505 30.955C139.462 31.005 139.395 31.035 139.305 31.045L139.195 31.055C138.992 31.075 138.838 31.1383 138.735 31.245C138.632 31.3483 138.58 31.495 138.58 31.685V32.72C138.58 32.8233 138.553 32.9033 138.5 32.96C138.447 33.0133 138.368 33.04 138.265 33.04ZM141.069 33.05C140.792 33.05 140.554 32.9983 140.354 32.895C140.154 32.7917 139.999 32.645 139.889 32.455C139.782 32.265 139.729 32.04 139.729 31.78C139.729 31.5267 139.781 31.305 139.884 31.115C139.991 30.925 140.136 30.7767 140.319 30.67C140.506 30.56 140.717 30.505 140.954 30.505C141.127 30.505 141.282 30.5333 141.419 30.59C141.559 30.6467 141.677 30.7283 141.774 30.835C141.874 30.9417 141.949 31.0717 141.999 31.225C142.052 31.375 142.079 31.545 142.079 31.735C142.079 31.795 142.057 31.8417 142.014 31.875C141.974 31.905 141.916 31.92 141.839 31.92H140.234V31.56H141.639L141.559 31.635C141.559 31.4817 141.536 31.3533 141.489 31.25C141.446 31.1467 141.381 31.0683 141.294 31.015C141.211 30.9583 141.106 30.93 140.979 30.93C140.839 30.93 140.719 30.9633 140.619 31.03C140.522 31.0933 140.447 31.185 140.394 31.305C140.344 31.4217 140.319 31.5617 140.319 31.725V31.76C140.319 32.0333 140.382 32.2383 140.509 32.375C140.639 32.5083 140.829 32.575 141.079 32.575C141.166 32.575 141.262 32.565 141.369 32.545C141.479 32.5217 141.582 32.4833 141.679 32.43C141.749 32.39 141.811 32.3733 141.864 32.38C141.917 32.3833 141.959 32.4017 141.989 32.435C142.022 32.4683 142.042 32.51 142.049 32.56C142.056 32.6067 142.046 32.655 142.019 32.705C141.996 32.755 141.954 32.7983 141.894 32.835C141.777 32.9083 141.642 32.9633 141.489 33C141.339 33.0333 141.199 33.05 141.069 33.05Z" fill="#979797"/>
<rect width="26.9946" height="25.2673" rx="7" transform="matrix(0.774206 0.632934 -0.728458 0.68509 29.7588 1.44562)" fill="#004E89"/>
<path fill-rule="evenodd" clip-rule="evenodd" d="M24.3035 18.1946C24.3035 15.0177 27.2367 12.4393 30.859 12.4393C34.4879 12.4393 37.4278 15.0177 37.4278 18.1946C37.4278 21.3714 34.4879 23.9498 30.859 23.9498C27.2367 23.9498 24.3035 21.3714 24.3035 18.1946ZM25.6159 18.1947C25.6159 20.7385 27.9651 22.7988 30.8656 22.7988C33.7661 22.7988 36.1153 20.7385 36.1153 18.1947C36.1153 15.6508 33.7661 13.5905 30.8656 13.5905C27.9651 13.5905 25.6159 15.6508 25.6159 18.1947Z" fill="white"/>
<path d="M30.5811 21.1646L31.5654 21.1584L31.5367 17.7053L28.0766 15.9145L27.5904 16.6255L30.556 18.1432L30.5811 21.1646Z" fill="white"/>
</g>
<defs>
<clipPath id="clip0_123_155">
<rect width="152" height="36" rx="5" fill="white"/>
</clipPath>
</defs>
</svg>
