<svg width="549" height="100" viewBox="0 0 549 100" fill="none" xmlns="http://www.w3.org/2000/svg">
<g clip-path="url(#clip0_123_46)">
<rect x="-30" y="-2" width="579" height="99" rx="20.8" fill="#FAFAFA"/>
<path d="M324.5 58.0128L324.05 48.6778L340.774 31.056H349.759L334.683 47.28L330.19 52.0723L324.5 58.0128ZM317.261 66V31.056H325.298V66H317.261ZM341.173 66L328.743 50.7744L334.034 45.0336L350.608 66H341.173ZM365.872 66.3994C362.81 66.3994 360.115 65.8003 357.785 64.6022C355.489 63.4042 353.708 61.7734 352.444 59.7101C351.179 57.6134 350.547 55.2339 350.547 52.5715C350.547 49.8758 351.162 47.4963 352.394 45.433C353.658 43.3363 355.372 41.7056 357.535 40.5408C359.699 39.3427 362.145 38.7437 364.874 38.7437C367.503 38.7437 369.866 39.3094 371.962 40.441C374.092 41.5392 375.773 43.1366 377.004 45.2333C378.236 47.2966 378.851 49.776 378.851 52.6714C378.851 52.9709 378.835 53.3203 378.801 53.7197C378.768 54.0858 378.735 54.4352 378.701 54.768H356.886V50.2253H374.608L371.613 51.5731C371.613 50.1754 371.33 48.9606 370.764 47.929C370.198 46.8973 369.416 46.0986 368.418 45.5328C367.42 44.9338 366.255 44.6342 364.924 44.6342C363.592 44.6342 362.411 44.9338 361.379 45.5328C360.381 46.0986 359.599 46.9139 359.033 47.9789C358.467 49.0106 358.184 50.2419 358.184 51.673V52.871C358.184 54.3354 358.5 55.6333 359.133 56.7648C359.798 57.863 360.714 58.7117 361.878 59.3107C363.076 59.8765 364.474 60.1594 366.072 60.1594C367.503 60.1594 368.751 59.943 369.816 59.5104C370.914 59.0778 371.912 58.4288 372.811 57.5635L376.954 62.0563C375.723 63.4541 374.175 64.5357 372.312 65.3011C370.448 66.0333 368.301 66.3994 365.872 66.3994ZM397.364 66.3994C394.303 66.3994 391.607 65.8003 389.277 64.6022C386.981 63.4042 385.201 61.7734 383.936 59.7101C382.671 57.6134 382.039 55.2339 382.039 52.5715C382.039 49.8758 382.655 47.4963 383.886 45.433C385.151 43.3363 386.865 41.7056 389.028 40.5408C391.191 39.3427 393.637 38.7437 396.366 38.7437C398.995 38.7437 401.358 39.3094 403.455 40.441C405.585 41.5392 407.265 43.1366 408.497 45.2333C409.728 47.2966 410.344 49.776 410.344 52.6714C410.344 52.9709 410.327 53.3203 410.294 53.7197C410.26 54.0858 410.227 54.4352 410.194 54.768H388.379V50.2253H406.1L403.105 51.5731C403.105 50.1754 402.822 48.9606 402.257 47.929C401.691 46.8973 400.909 46.0986 399.91 45.5328C398.912 44.9338 397.747 44.6342 396.416 44.6342C395.085 44.6342 393.903 44.9338 392.872 45.5328C391.873 46.0986 391.091 46.9139 390.525 47.9789C389.96 49.0106 389.677 50.2419 389.677 51.673V52.871C389.677 54.3354 389.993 55.6333 390.625 56.7648C391.291 57.863 392.206 58.7117 393.371 59.3107C394.569 59.8765 395.967 60.1594 397.564 60.1594C398.995 60.1594 400.243 59.943 401.308 59.5104C402.406 59.0778 403.405 58.4288 404.303 57.5635L408.447 62.0563C407.215 63.4541 405.668 64.5357 403.804 65.3011C401.94 66.0333 399.794 66.3994 397.364 66.3994ZM431.403 66.3994C429.14 66.3994 427.16 65.9002 425.462 64.9018C423.765 63.9034 422.434 62.3891 421.469 60.359C420.537 58.2957 420.071 55.6998 420.071 52.5715C420.071 49.4099 420.52 46.8141 421.419 44.784C422.317 42.7539 423.615 41.2397 425.313 40.2413C427.01 39.2429 429.04 38.7437 431.403 38.7437C433.932 38.7437 436.195 39.3261 438.192 40.4909C440.222 41.6224 441.82 43.2198 442.984 45.2832C444.182 47.3466 444.781 49.776 444.781 52.5715C444.781 55.4003 444.182 57.8464 442.984 59.9098C441.82 61.9731 440.222 63.5706 438.192 64.7021C436.195 65.8336 433.932 66.3994 431.403 66.3994ZM415.528 75.6845V39.143H422.966V44.6342L422.817 52.6214L423.316 60.5587V75.6845H415.528ZM430.055 60.0096C431.353 60.0096 432.501 59.7101 433.5 59.111C434.531 58.512 435.347 57.6634 435.946 56.5651C436.578 55.4336 436.894 54.1024 436.894 52.5715C436.894 51.0074 436.578 49.6762 435.946 48.5779C435.347 47.4797 434.531 46.631 433.5 46.032C432.501 45.433 431.353 45.1334 430.055 45.1334C428.757 45.1334 427.592 45.433 426.561 46.032C425.529 46.631 424.714 47.4797 424.115 48.5779C423.516 49.6762 423.216 51.0074 423.216 52.5715C423.216 54.1024 423.516 55.4336 424.115 56.5651C424.714 57.6634 425.529 58.512 426.561 59.111C427.592 59.7101 428.757 60.0096 430.055 60.0096ZM463.323 66.3994C460.261 66.3994 457.566 65.8003 455.236 64.6022C452.94 63.4042 451.159 61.7734 449.895 59.7101C448.63 57.6134 447.998 55.2339 447.998 52.5715C447.998 49.8758 448.613 47.4963 449.845 45.433C451.109 43.3363 452.823 41.7056 454.987 40.5408C457.15 39.3427 459.596 38.7437 462.325 38.7437C464.954 38.7437 467.317 39.3094 469.413 40.441C471.543 41.5392 473.224 43.1366 474.455 45.2333C475.687 47.2966 476.302 49.776 476.302 52.6714C476.302 52.9709 476.286 53.3203 476.253 53.7197C476.219 54.0858 476.186 54.4352 476.153 54.768H454.338V50.2253H472.059L469.064 51.5731C469.064 50.1754 468.781 48.9606 468.215 47.929C467.65 46.8973 466.868 46.0986 465.869 45.5328C464.871 44.9338 463.706 44.6342 462.375 44.6342C461.044 44.6342 459.862 44.9338 458.83 45.5328C457.832 46.0986 457.05 46.9139 456.484 47.9789C455.918 49.0106 455.636 50.2419 455.636 51.673V52.871C455.636 54.3354 455.952 55.6333 456.584 56.7648C457.25 57.863 458.165 58.7117 459.33 59.3107C460.528 59.8765 461.925 60.1594 463.523 60.1594C464.954 60.1594 466.202 59.943 467.267 59.5104C468.365 59.0778 469.364 58.4288 470.262 57.5635L474.405 62.0563C473.174 63.4541 471.627 64.5357 469.763 65.3011C467.899 66.0333 465.753 66.3994 463.323 66.3994ZM481.487 66V39.143H488.925V46.7309L487.877 44.5344C488.676 42.6374 489.957 41.2064 491.721 40.2413C493.485 39.2429 495.631 38.7437 498.16 38.7437V45.9322C497.828 45.8989 497.528 45.8822 497.262 45.8822C496.996 45.849 496.713 45.8323 496.413 45.8323C494.283 45.8323 492.553 46.448 491.221 47.6794C489.924 48.8774 489.275 50.7578 489.275 53.3203V66H481.487Z" fill="#004E89"/>
<path d="M180.465 66V37.6454H169.283V31.056H199.735V37.6454H188.552V66H180.465ZM203.537 66V39.143H211.324V66H203.537ZM207.43 35.399C205.999 35.399 204.835 34.983 203.936 34.151C203.037 33.319 202.588 32.2874 202.588 31.056C202.588 29.8246 203.037 28.793 203.936 27.961C204.835 27.129 205.999 26.713 207.43 26.713C208.861 26.713 210.026 27.1123 210.925 27.911C211.823 28.6765 212.273 29.6749 212.273 30.9062C212.273 32.2042 211.823 33.2858 210.925 34.151C210.06 34.983 208.895 35.399 207.43 35.399ZM252.947 38.7437C255.076 38.7437 256.957 39.1763 258.587 40.0416C260.251 40.8736 261.549 42.1715 262.481 43.9354C263.446 45.6659 263.929 47.8957 263.929 50.6246V66H256.141V51.8227C256.141 49.6595 255.692 48.0621 254.794 47.0304C253.895 45.9987 252.63 45.4829 251 45.4829C249.868 45.4829 248.853 45.7491 247.955 46.2816C247.056 46.7808 246.357 47.5462 245.858 48.5779C245.359 49.6096 245.109 50.9242 245.109 52.5216V66H237.322V51.8227C237.322 49.6595 236.872 48.0621 235.974 47.0304C235.108 45.9987 233.86 45.4829 232.23 45.4829C231.098 45.4829 230.083 45.7491 229.185 46.2816C228.286 46.7808 227.587 47.5462 227.088 48.5779C226.589 49.6096 226.339 50.9242 226.339 52.5216V66H218.552V39.143H225.99V46.4813L224.592 44.3347C225.524 42.5043 226.838 41.1232 228.536 40.1914C230.266 39.2262 232.23 38.7437 234.426 38.7437C236.889 38.7437 239.035 39.376 240.866 40.6406C242.73 41.872 243.961 43.769 244.56 46.3315L241.814 45.5827C242.713 43.4861 244.144 41.8221 246.107 40.5907C248.104 39.3594 250.384 38.7437 252.947 38.7437ZM284.433 66.3994C281.371 66.3994 278.675 65.8003 276.346 64.6022C274.049 63.4042 272.269 61.7734 271.004 59.7101C269.74 57.6134 269.107 55.2339 269.107 52.5715C269.107 49.8758 269.723 47.4963 270.954 45.433C272.219 43.3363 273.933 41.7056 276.096 40.5408C278.259 39.3427 280.705 38.7437 283.434 38.7437C286.063 38.7437 288.426 39.3094 290.523 40.441C292.653 41.5392 294.334 43.1366 295.565 45.2333C296.796 47.2966 297.412 49.776 297.412 52.6714C297.412 52.9709 297.395 53.3203 297.362 53.7197C297.329 54.0858 297.295 54.4352 297.262 54.768H275.447V50.2253H293.169L290.174 51.5731C290.174 50.1754 289.891 48.9606 289.325 47.929C288.759 46.8973 287.977 46.0986 286.979 45.5328C285.98 44.9338 284.815 44.6342 283.484 44.6342C282.153 44.6342 280.972 44.9338 279.94 45.5328C278.942 46.0986 278.159 46.9139 277.594 47.9789C277.028 49.0106 276.745 50.2419 276.745 51.673V52.871C276.745 54.3354 277.061 55.6333 277.694 56.7648C278.359 57.863 279.274 58.7117 280.439 59.3107C281.637 59.8765 283.035 60.1594 284.632 60.1594C286.063 60.1594 287.311 59.943 288.376 59.5104C289.475 59.0778 290.473 58.4288 291.372 57.5635L295.515 62.0563C294.284 63.4541 292.736 64.5357 290.872 65.3011C289.009 66.0333 286.862 66.3994 284.433 66.3994Z" fill="black"/>
<path d="M449.47 89.1C449.057 89.1 448.693 88.9967 448.38 88.79C448.073 88.5833 447.87 88.3067 447.77 87.96L447.88 87.71V88.44C447.88 88.6467 447.827 88.8067 447.72 88.92C447.613 89.0267 447.463 89.08 447.27 89.08C447.07 89.08 446.917 89.0267 446.81 88.92C446.703 88.8067 446.65 88.6467 446.65 88.44V82.5C446.65 82.2933 446.703 82.1367 446.81 82.03C446.917 81.9233 447.07 81.87 447.27 81.87C447.47 81.87 447.623 81.9233 447.73 82.03C447.843 82.1367 447.9 82.2933 447.9 82.5V85.1H447.78C447.887 84.7733 448.093 84.51 448.4 84.31C448.707 84.11 449.063 84.01 449.47 84.01C449.903 84.01 450.28 84.1133 450.6 84.32C450.92 84.5267 451.17 84.82 451.35 85.2C451.53 85.5733 451.62 86.0233 451.62 86.55C451.62 87.07 451.53 87.5233 451.35 87.91C451.17 88.29 450.917 88.5833 450.59 88.79C450.27 88.9967 449.897 89.1 449.47 89.1ZM449.12 88.15C449.367 88.15 449.583 88.09 449.77 87.97C449.957 87.85 450.1 87.6733 450.2 87.44C450.307 87.2 450.36 86.9033 450.36 86.55C450.36 86.0167 450.247 85.62 450.02 85.36C449.793 85.0933 449.493 84.96 449.12 84.96C448.873 84.96 448.657 85.02 448.47 85.14C448.283 85.2533 448.137 85.43 448.03 85.67C447.93 85.9033 447.88 86.1967 447.88 86.55C447.88 87.0767 447.993 87.4767 448.22 87.75C448.447 88.0167 448.747 88.15 449.12 88.15ZM453.788 90.88C453.642 90.88 453.522 90.84 453.428 90.76C453.335 90.6867 453.278 90.5867 453.258 90.46C453.245 90.3333 453.268 90.2 453.328 90.06L454.008 88.55V89.07L452.188 84.86C452.128 84.7133 452.108 84.5767 452.128 84.45C452.148 84.3233 452.208 84.2233 452.308 84.15C452.415 84.07 452.558 84.03 452.738 84.03C452.892 84.03 453.015 84.0667 453.108 84.14C453.202 84.2067 453.285 84.3367 453.358 84.53L454.708 87.9H454.408L455.788 84.52C455.862 84.3333 455.948 84.2067 456.048 84.14C456.148 84.0667 456.282 84.03 456.448 84.03C456.595 84.03 456.712 84.07 456.798 84.15C456.885 84.2233 456.938 84.3233 456.958 84.45C456.978 84.57 456.955 84.7033 456.888 84.85L454.458 90.4C454.372 90.5867 454.278 90.7133 454.178 90.78C454.078 90.8467 453.948 90.88 453.788 90.88ZM461.287 89.08C461.08 89.08 460.92 89.0233 460.807 88.91C460.7 88.79 460.647 88.6267 460.647 88.42V82.6C460.647 82.3867 460.704 82.2267 460.817 82.12C460.93 82.0067 461.09 81.95 461.297 81.95H463.707C464.48 81.95 465.077 82.1367 465.497 82.51C465.917 82.8767 466.127 83.3933 466.127 84.06C466.127 84.4933 466.03 84.8667 465.837 85.18C465.65 85.4933 465.377 85.7333 465.017 85.9C464.657 86.0667 464.22 86.15 463.707 86.15L463.797 86H464.127C464.4 86 464.637 86.0667 464.837 86.2C465.044 86.3333 465.224 86.5433 465.377 86.83L466.127 88.22C466.207 88.36 466.244 88.4967 466.237 88.63C466.23 88.7633 466.18 88.8733 466.087 88.96C465.994 89.04 465.857 89.08 465.677 89.08C465.497 89.08 465.35 89.0433 465.237 88.97C465.124 88.89 465.024 88.77 464.937 88.61L463.927 86.75C463.807 86.5233 463.664 86.3733 463.497 86.3C463.337 86.22 463.13 86.18 462.877 86.18H461.927V88.42C461.927 88.6267 461.874 88.79 461.767 88.91C461.66 89.0233 461.5 89.08 461.287 89.08ZM461.927 85.23H463.487C463.947 85.23 464.294 85.1367 464.527 84.95C464.767 84.7567 464.887 84.47 464.887 84.09C464.887 83.7167 464.767 83.4367 464.527 83.25C464.294 83.0567 463.947 82.96 463.487 82.96H461.927V85.23ZM469.535 90.9C469.175 90.9 468.825 90.8667 468.485 90.8C468.152 90.7333 467.849 90.63 467.575 90.49C467.449 90.4233 467.362 90.3433 467.315 90.25C467.275 90.1567 467.262 90.06 467.275 89.96C467.295 89.8667 467.335 89.7833 467.395 89.71C467.462 89.6367 467.542 89.5867 467.635 89.56C467.729 89.5333 467.825 89.5467 467.925 89.6C468.219 89.7467 468.495 89.84 468.755 89.88C469.022 89.9267 469.249 89.95 469.435 89.95C469.882 89.95 470.215 89.84 470.435 89.62C470.662 89.4067 470.775 89.0867 470.775 88.66V87.76H470.865C470.765 88.1 470.555 88.3733 470.235 88.58C469.922 88.78 469.565 88.88 469.165 88.88C468.725 88.88 468.342 88.78 468.015 88.58C467.689 88.3733 467.435 88.0867 467.255 87.72C467.075 87.3533 466.985 86.9267 466.985 86.44C466.985 86.0733 467.035 85.7433 467.135 85.45C467.242 85.15 467.389 84.8933 467.575 84.68C467.769 84.4667 467.999 84.3033 468.265 84.19C468.539 84.07 468.839 84.01 469.165 84.01C469.579 84.01 469.939 84.1133 470.245 84.32C470.559 84.52 470.762 84.7867 470.855 85.12L470.755 85.37V84.66C470.755 84.4533 470.809 84.2967 470.915 84.19C471.029 84.0833 471.182 84.03 471.375 84.03C471.575 84.03 471.729 84.0833 471.835 84.19C471.942 84.2967 471.995 84.4533 471.995 84.66V88.51C471.995 89.3033 471.785 89.9 471.365 90.3C470.945 90.7 470.335 90.9 469.535 90.9ZM469.505 87.93C469.765 87.93 469.989 87.87 470.175 87.75C470.362 87.63 470.505 87.46 470.605 87.24C470.712 87.0133 470.765 86.7467 470.765 86.44C470.765 85.98 470.652 85.62 470.425 85.36C470.199 85.0933 469.892 84.96 469.505 84.96C469.245 84.96 469.022 85.02 468.835 85.14C468.649 85.26 468.502 85.43 468.395 85.65C468.295 85.87 468.245 86.1333 468.245 86.44C468.245 86.9 468.359 87.2633 468.585 87.53C468.812 87.7967 469.119 87.93 469.505 87.93ZM474.011 89.08C473.824 89.08 473.681 89.0267 473.581 88.92C473.481 88.8133 473.431 88.6667 473.431 88.48V82.47C473.431 82.2767 473.484 82.13 473.591 82.03C473.697 81.9233 473.844 81.87 474.031 81.87C474.197 81.87 474.327 81.9033 474.421 81.97C474.521 82.03 474.611 82.1367 474.691 82.29L477.161 86.86H476.841L479.311 82.29C479.391 82.1367 479.477 82.03 479.571 81.97C479.664 81.9033 479.794 81.87 479.961 81.87C480.147 81.87 480.291 81.9233 480.391 82.03C480.491 82.13 480.541 82.2767 480.541 82.47V88.48C480.541 88.6667 480.491 88.8133 480.391 88.92C480.297 89.0267 480.154 89.08 479.961 89.08C479.774 89.08 479.631 89.0267 479.531 88.92C479.431 88.8133 479.381 88.6667 479.381 88.48V83.85H479.601L477.501 87.68C477.434 87.7933 477.364 87.8767 477.291 87.93C477.217 87.9833 477.117 88.01 476.991 88.01C476.864 88.01 476.761 87.9833 476.681 87.93C476.601 87.87 476.531 87.7867 476.471 87.68L474.351 83.84H474.591V88.48C474.591 88.6667 474.541 88.8133 474.441 88.92C474.347 89.0267 474.204 89.08 474.011 89.08ZM487.237 89.1C486.944 89.1 486.65 89.0767 486.357 89.03C486.064 88.99 485.787 88.9267 485.527 88.84C485.267 88.7467 485.034 88.6333 484.827 88.5C484.707 88.42 484.624 88.3233 484.577 88.21C484.53 88.0967 484.514 87.9867 484.527 87.88C484.547 87.7667 484.59 87.67 484.657 87.59C484.73 87.5033 484.82 87.45 484.927 87.43C485.034 87.41 485.15 87.44 485.277 87.52C485.57 87.6933 485.88 87.82 486.207 87.9C486.534 87.98 486.877 88.02 487.237 88.02C487.764 88.02 488.147 87.9333 488.387 87.76C488.627 87.58 488.747 87.35 488.747 87.07C488.747 86.8367 488.66 86.6533 488.487 86.52C488.32 86.3867 488.03 86.2767 487.617 86.19L486.517 85.96C485.884 85.8267 485.41 85.6033 485.097 85.29C484.79 84.97 484.637 84.55 484.637 84.03C484.637 83.7033 484.704 83.4067 484.837 83.14C484.97 82.8733 485.157 82.6433 485.397 82.45C485.644 82.2567 485.934 82.11 486.267 82.01C486.607 81.9033 486.98 81.85 487.387 81.85C487.787 81.85 488.167 81.9 488.527 82C488.887 82.1 489.21 82.2467 489.497 82.44C489.604 82.5133 489.674 82.6033 489.707 82.71C489.747 82.8167 489.757 82.9233 489.737 83.03C489.717 83.13 489.67 83.2167 489.597 83.29C489.524 83.3633 489.43 83.4067 489.317 83.42C489.21 83.4333 489.087 83.4 488.947 83.32C488.7 83.18 488.45 83.08 488.197 83.02C487.944 82.96 487.67 82.93 487.377 82.93C487.07 82.93 486.807 82.9733 486.587 83.06C486.367 83.1467 486.197 83.27 486.077 83.43C485.964 83.5833 485.907 83.7667 485.907 83.98C485.907 84.22 485.987 84.4133 486.147 84.56C486.307 84.7 486.58 84.81 486.967 84.89L488.057 85.12C488.717 85.26 489.207 85.48 489.527 85.78C489.854 86.08 490.017 86.48 490.017 86.98C490.017 87.3 489.95 87.59 489.817 87.85C489.69 88.11 489.504 88.3333 489.257 88.52C489.017 88.7067 488.727 88.85 488.387 88.95C488.047 89.05 487.664 89.1 487.237 89.1ZM493.226 89.1C492.719 89.1 492.279 88.9967 491.906 88.79C491.532 88.5833 491.242 88.29 491.036 87.91C490.829 87.5233 490.726 87.07 490.726 86.55C490.726 86.1567 490.782 85.8067 490.896 85.5C491.016 85.1867 491.186 84.92 491.406 84.7C491.626 84.4733 491.889 84.3033 492.196 84.19C492.502 84.07 492.846 84.01 493.226 84.01C493.732 84.01 494.172 84.1133 494.546 84.32C494.919 84.5267 495.209 84.82 495.416 85.2C495.622 85.58 495.726 86.03 495.726 86.55C495.726 86.9433 495.666 87.2967 495.546 87.61C495.432 87.9233 495.266 88.1933 495.046 88.42C494.826 88.64 494.562 88.81 494.256 88.93C493.949 89.0433 493.606 89.1 493.226 89.1ZM493.226 88.15C493.472 88.15 493.689 88.09 493.876 87.97C494.062 87.85 494.206 87.6733 494.306 87.44C494.412 87.2 494.466 86.9033 494.466 86.55C494.466 86.0167 494.352 85.62 494.126 85.36C493.899 85.0933 493.599 84.96 493.226 84.96C492.979 84.96 492.762 85.02 492.576 85.14C492.389 85.2533 492.242 85.43 492.136 85.67C492.036 85.9033 491.986 86.1967 491.986 86.55C491.986 87.0767 492.099 87.4767 492.326 87.75C492.552 88.0167 492.852 88.15 493.226 88.15ZM497.669 89.08C497.469 89.08 497.312 89.0267 497.199 88.92C497.092 88.8067 497.039 88.6467 497.039 88.44V85.05H496.579C496.419 85.05 496.295 85.01 496.209 84.93C496.122 84.8433 496.079 84.7267 496.079 84.58C496.079 84.4267 496.122 84.31 496.209 84.23C496.295 84.15 496.419 84.11 496.579 84.11H497.399L497.039 84.44V84.1C497.039 83.4133 497.212 82.9 497.559 82.56C497.905 82.2133 498.405 82.01 499.059 81.95L499.399 81.92C499.532 81.9067 499.639 81.93 499.719 81.99C499.799 82.0433 499.852 82.1167 499.879 82.21C499.905 82.2967 499.909 82.3867 499.889 82.48C499.869 82.5733 499.825 82.6567 499.759 82.73C499.699 82.7967 499.619 82.8333 499.519 82.84L499.379 82.85C498.999 82.8767 498.722 82.9733 498.549 83.14C498.375 83.3067 498.289 83.56 498.289 83.9V84.27L498.129 84.11H499.139C499.299 84.11 499.422 84.15 499.509 84.23C499.595 84.31 499.639 84.4267 499.639 84.58C499.639 84.7267 499.595 84.8433 499.509 84.93C499.422 85.01 499.299 85.05 499.139 85.05H498.289V88.44C498.289 88.8667 498.082 89.08 497.669 89.08ZM502.318 89.1C501.884 89.1 501.521 89.0267 501.228 88.88C500.941 88.7333 500.728 88.52 500.588 88.24C500.448 87.9533 500.378 87.6 500.378 87.18V85.05H499.858C499.698 85.05 499.574 85.01 499.488 84.93C499.401 84.8433 499.358 84.7267 499.358 84.58C499.358 84.4267 499.401 84.31 499.488 84.23C499.574 84.15 499.698 84.11 499.858 84.11H500.378V83.2C500.378 82.9933 500.431 82.8367 500.538 82.73C500.651 82.6233 500.808 82.57 501.008 82.57C501.208 82.57 501.361 82.6233 501.468 82.73C501.574 82.8367 501.628 82.9933 501.628 83.2V84.11H502.688C502.848 84.11 502.971 84.15 503.058 84.23C503.144 84.31 503.188 84.4267 503.188 84.58C503.188 84.7267 503.144 84.8433 503.058 84.93C502.971 85.01 502.848 85.05 502.688 85.05H501.628V87.11C501.628 87.43 501.698 87.67 501.838 87.83C501.978 87.99 502.204 88.07 502.518 88.07C502.631 88.07 502.731 88.06 502.818 88.04C502.904 88.02 502.981 88.0067 503.048 88C503.128 87.9933 503.194 88.02 503.248 88.08C503.301 88.1333 503.328 88.2467 503.328 88.42C503.328 88.5533 503.304 88.6733 503.258 88.78C503.218 88.88 503.141 88.95 503.028 88.99C502.941 89.0167 502.828 89.04 502.688 89.06C502.548 89.0867 502.424 89.1 502.318 89.1ZM505.884 89.08C505.717 89.08 505.574 89.04 505.454 88.96C505.334 88.8733 505.237 88.74 505.164 88.56L503.714 84.86C503.654 84.7 503.634 84.56 503.654 84.44C503.68 84.3133 503.744 84.2133 503.844 84.14C503.944 84.0667 504.077 84.03 504.244 84.03C504.39 84.03 504.51 84.0667 504.604 84.14C504.697 84.2067 504.777 84.3367 504.844 84.53L506.054 87.86H505.824L507.074 84.45C507.127 84.3033 507.197 84.1967 507.284 84.13C507.377 84.0633 507.497 84.03 507.644 84.03C507.79 84.03 507.91 84.0667 508.004 84.14C508.097 84.2067 508.167 84.31 508.214 84.45L509.444 87.86H509.234L510.454 84.5C510.52 84.32 510.604 84.1967 510.704 84.13C510.81 84.0633 510.927 84.03 511.054 84.03C511.214 84.03 511.337 84.07 511.424 84.15C511.51 84.23 511.56 84.3333 511.574 84.46C511.587 84.58 511.564 84.7133 511.504 84.86L510.064 88.56C509.997 88.7333 509.9 88.8633 509.774 88.95C509.654 89.0367 509.51 89.08 509.344 89.08C509.177 89.08 509.03 89.0367 508.904 88.95C508.784 88.8633 508.69 88.7333 508.624 88.56L507.314 85.09H507.884L506.604 88.55C506.537 88.73 506.444 88.8633 506.324 88.95C506.204 89.0367 506.057 89.08 505.884 89.08ZM514.031 89.1C513.678 89.1 513.361 89.0333 513.081 88.9C512.808 88.76 512.591 88.5733 512.431 88.34C512.278 88.1067 512.201 87.8433 512.201 87.55C512.201 87.19 512.295 86.9067 512.481 86.7C512.668 86.4867 512.971 86.3333 513.391 86.24C513.811 86.1467 514.375 86.1 515.081 86.1H515.581V86.82H515.091C514.678 86.82 514.348 86.84 514.101 86.88C513.855 86.92 513.678 86.99 513.571 87.09C513.471 87.1833 513.421 87.3167 513.421 87.49C513.421 87.71 513.498 87.89 513.651 88.03C513.805 88.17 514.018 88.24 514.291 88.24C514.511 88.24 514.705 88.19 514.871 88.09C515.045 87.9833 515.181 87.84 515.281 87.66C515.381 87.48 515.431 87.2733 515.431 87.04V85.89C515.431 85.5567 515.358 85.3167 515.211 85.17C515.065 85.0233 514.818 84.95 514.471 84.95C514.278 84.95 514.068 84.9733 513.841 85.02C513.621 85.0667 513.388 85.1467 513.141 85.26C513.015 85.32 512.901 85.3367 512.801 85.31C512.708 85.2833 512.635 85.23 512.581 85.15C512.528 85.0633 512.501 84.97 512.501 84.87C512.501 84.77 512.528 84.6733 512.581 84.58C512.635 84.48 512.725 84.4067 512.851 84.36C513.158 84.2333 513.451 84.1433 513.731 84.09C514.018 84.0367 514.278 84.01 514.511 84.01C514.991 84.01 515.385 84.0833 515.691 84.23C516.005 84.3767 516.238 84.6 516.391 84.9C516.545 85.1933 516.621 85.5733 516.621 86.04V88.44C516.621 88.6467 516.571 88.8067 516.471 88.92C516.371 89.0267 516.228 89.08 516.041 89.08C515.855 89.08 515.708 89.0267 515.601 88.92C515.501 88.8067 515.451 88.6467 515.451 88.44V87.96H515.531C515.485 88.1933 515.391 88.3967 515.251 88.57C515.118 88.7367 514.948 88.8667 514.741 88.96C514.535 89.0533 514.298 89.1 514.031 89.1ZM518.53 89.08C518.324 89.08 518.164 89.0267 518.05 88.92C517.944 88.8067 517.89 88.6467 517.89 88.44V84.66C517.89 84.4533 517.944 84.2967 518.05 84.19C518.157 84.0833 518.307 84.03 518.5 84.03C518.694 84.03 518.844 84.0833 518.95 84.19C519.057 84.2967 519.11 84.4533 519.11 84.66V85.29H519.01C519.104 84.89 519.287 84.5867 519.56 84.38C519.834 84.1733 520.197 84.05 520.65 84.01C520.79 83.9967 520.9 84.0333 520.98 84.12C521.067 84.2 521.117 84.3267 521.13 84.5C521.144 84.6667 521.104 84.8033 521.01 84.91C520.924 85.01 520.79 85.07 520.61 85.09L520.39 85.11C519.984 85.15 519.677 85.2767 519.47 85.49C519.264 85.6967 519.16 85.99 519.16 86.37V88.44C519.16 88.6467 519.107 88.8067 519 88.92C518.894 89.0267 518.737 89.08 518.53 89.08ZM524.138 89.1C523.585 89.1 523.108 88.9967 522.708 88.79C522.308 88.5833 521.998 88.29 521.778 87.91C521.565 87.53 521.458 87.08 521.458 86.56C521.458 86.0533 521.561 85.61 521.768 85.23C521.981 84.85 522.271 84.5533 522.638 84.34C523.011 84.12 523.435 84.01 523.908 84.01C524.255 84.01 524.565 84.0667 524.838 84.18C525.118 84.2933 525.355 84.4567 525.548 84.67C525.748 84.8833 525.898 85.1433 525.998 85.45C526.105 85.75 526.158 86.09 526.158 86.47C526.158 86.59 526.115 86.6833 526.028 86.75C525.948 86.81 525.831 86.84 525.678 86.84H522.468V86.12H525.278L525.118 86.27C525.118 85.9633 525.071 85.7067 524.978 85.5C524.891 85.2933 524.761 85.1367 524.588 85.03C524.421 84.9167 524.211 84.86 523.958 84.86C523.678 84.86 523.438 84.9267 523.238 85.06C523.045 85.1867 522.895 85.37 522.788 85.61C522.688 85.8433 522.638 86.1233 522.638 86.45V86.52C522.638 87.0667 522.765 87.4767 523.018 87.75C523.278 88.0167 523.658 88.15 524.158 88.15C524.331 88.15 524.525 88.13 524.738 88.09C524.958 88.0433 525.165 87.9667 525.358 87.86C525.498 87.78 525.621 87.7467 525.728 87.76C525.835 87.7667 525.918 87.8033 525.978 87.87C526.045 87.9367 526.085 88.02 526.098 88.12C526.111 88.2133 526.091 88.31 526.038 88.41C525.991 88.51 525.908 88.5967 525.788 88.67C525.555 88.8167 525.285 88.9267 524.978 89C524.678 89.0667 524.398 89.1 524.138 89.1Z" fill="#979797"/>
<rect width="48.6704" height="45.8648" rx="7" transform="matrix(0.742889 0.669415 -0.694286 0.719699 80.8433 15)" fill="#004E89"/>
<path fill-rule="evenodd" clip-rule="evenodd" d="M71.4054 46.9384C71.4054 40.8804 76.4801 35.9638 82.7468 35.9638C89.0248 35.9638 94.1109 40.8804 94.1109 46.9384C94.1109 52.9963 89.0248 57.9129 82.7468 57.9129C76.4801 57.9129 71.4054 52.9963 71.4054 46.9384ZM73.6759 46.9384C73.6759 51.7892 77.7402 55.7181 82.7581 55.7181C87.776 55.7181 91.8403 51.7892 91.8403 46.9384C91.8403 42.0877 87.776 38.1588 82.7581 38.1588C77.7402 38.1588 73.6759 42.0877 73.6759 46.9384Z" fill="white"/>
<path d="M82.2661 52.602L83.9689 52.59L83.9193 46.0055L77.9332 42.5906L77.0919 43.9464L82.2226 46.8405L82.2661 52.602Z" fill="white"/>
</g>
<defs>
<clipPath id="clip0_123_46">
<rect width="549" height="100" rx="10" fill="white"/>
</clipPath>
</defs>
</svg>
