<svg width="41" height="39" viewBox="0 0 41 39" fill="none" xmlns="http://www.w3.org/2000/svg">
<g id="timer-outline">
<path id="Vector" d="M9.0416 9.74993C6.55533 12.3913 5.16334 15.8024 5.12498 19.3476C5.03048 27.4485 11.9837 34.1097 20.5 34.1249C29.0043 34.1402 35.875 27.5871 35.875 19.4999C35.875 11.5369 29.1844 5.05698 20.8603 4.87493C20.8135 4.8735 20.7668 4.88105 20.7231 4.89715C20.6794 4.91324 20.6395 4.93755 20.6059 4.96861C20.5723 4.99968 20.5455 5.03686 20.5273 5.07796C20.5092 5.11905 20.4998 5.16321 20.5 5.2078V11.5781" stroke="black" stroke-linecap="round" stroke-linejoin="round"/>
<path id="Vector_2" d="M18.6887 21.2238L12.3626 12.6163C12.275 12.4971 12.2344 12.3523 12.2479 12.2074C12.2613 12.0626 12.3279 11.9268 12.436 11.824C12.5442 11.7211 12.6869 11.6578 12.8392 11.645C12.9915 11.6322 13.1437 11.6708 13.269 11.7541L22.3179 17.7716C22.8729 18.1519 23.2483 18.7247 23.3627 19.3661C23.4772 20.0076 23.3216 20.6661 22.9296 21.1993C22.5376 21.7325 21.9406 22.0974 21.2679 22.2152C20.5952 22.3329 19.9008 22.194 19.335 21.8286C19.0848 21.6636 18.8662 21.4591 18.6887 21.2238Z" fill="black" fill-opacity="0.93"/>
</g>
</svg>
