<svg width="29" height="26" viewBox="0 0 29 26" fill="none" xmlns="http://www.w3.org/2000/svg">
<g id="timer-outline">
<path id="Vector" d="M6.24004 6.30648C4.52417 8.01499 3.56351 10.2214 3.53703 12.5145C3.47182 17.7544 8.27047 22.0631 14.1479 22.073C20.017 22.0828 24.7587 17.8441 24.7587 12.6131C24.7587 7.46236 20.1414 3.27094 14.3966 3.15319C14.3642 3.15226 14.332 3.15715 14.3019 3.16756C14.2717 3.17797 14.2442 3.19369 14.221 3.21379C14.1978 3.23388 14.1793 3.25793 14.1668 3.28451C14.1542 3.31109 14.1478 3.33966 14.1479 3.3685V7.48897" stroke="black" stroke-linecap="round" stroke-linejoin="round"/>
<path id="Vector_2" d="M12.8977 13.7281L8.53181 8.16061C8.47141 8.08347 8.44339 7.98984 8.45267 7.89613C8.46194 7.80242 8.50791 7.71461 8.58253 7.64809C8.65714 7.58156 8.75564 7.54058 8.86075 7.53231C8.96586 7.52405 9.07089 7.54903 9.15741 7.60287L15.4023 11.4952C15.7854 11.7412 16.0444 12.1117 16.1234 12.5266C16.2024 12.9415 16.095 13.3675 15.8245 13.7123C15.5539 14.0572 15.142 14.2932 14.6777 14.3694C14.2135 14.4456 13.7343 14.3558 13.3437 14.1194C13.171 14.0127 13.0202 13.8803 12.8977 13.7281Z" fill="black"/>
</g>
</svg>
