<svg width="42" height="33" viewBox="0 0 42 33" fill="none" xmlns="http://www.w3.org/2000/svg">
<path id="Vector" d="M34.5465 13.9167C34.2429 13.9167 33.2259 13.9247 32.9393 13.9409L27.1447 14.0781C27.1146 14.0798 27.0846 14.0739 27.0579 14.0611C27.0313 14.0482 27.0091 14.029 26.9938 14.0055L15.4243 1.2874C15.3541 1.2034 15.2646 1.1342 15.1619 1.08458C15.0592 1.03496 14.9458 1.0061 14.8296 1H12.4287L18.9466 13.9974C18.9621 14.0271 18.9688 14.06 18.9661 14.0929C18.9633 14.1257 18.9511 14.1573 18.9308 14.1845C18.9104 14.2118 18.8826 14.2338 18.85 14.2484C18.8174 14.263 18.7811 14.2697 18.7448 14.2678L7.87965 14.4131C7.76659 14.4162 7.65431 14.3952 7.55192 14.3517C7.44954 14.3082 7.35993 14.2435 7.29037 14.1629L3.98682 10.5301C3.71896 10.2152 3.21718 10.0457 2.78058 10.0457H1.09666C0.98148 10.0457 0.998444 10.1434 1.02969 10.2419L2.80111 16.0076C2.93501 16.3163 2.93501 16.6594 2.80111 16.9682L1.02791 22.7161C0.97523 22.8736 0.98148 22.9583 1.18594 22.9583H2.78593C3.51272 22.9583 3.61182 22.8728 3.98325 22.4497L7.3493 18.7604C7.41947 18.6804 7.5092 18.6161 7.61144 18.5727C7.71368 18.5293 7.82565 18.5079 7.93858 18.5102L18.7135 18.7281C18.7528 18.7289 18.7912 18.7384 18.8254 18.7557C18.8597 18.7729 18.8888 18.7975 18.9102 18.8273C18.9316 18.857 18.9446 18.8911 18.9481 18.9264C18.9517 18.9617 18.9456 18.9973 18.9305 19.0301L12.4287 32H14.8073C14.9233 31.9939 15.0364 31.9651 15.139 31.9156C15.2415 31.8661 15.3309 31.7972 15.401 31.7134L26.9947 19.0026C27.0295 18.9542 27.1733 18.9299 27.2349 18.9299L32.9402 19.0672C33.2349 19.0833 34.2429 19.0914 34.5474 19.0914C38.5 19.0914 41 18.1089 41 16.5C41 14.8911 38.5107 13.9167 34.5465 13.9167Z" stroke="black" stroke-linecap="round" stroke-linejoin="round"/>
</svg>
